# xmcd
#
# Track frame offsets:
#  150
#  905
#  22880
#  46460
#  63827
#  78085
#  96715
#  108860
#  125030
#  139880
#  159325
#  171537
#  172290
#  191192
#  209888
#  228467
#  244917
#  264102
#  282302
#  302540
#
# Disc length: 4281 seconds
#
# Revision: 0
# Processed by: cddbd v1.5.1PL2 Copyright (c) Steve Scherf et al.
# Submitted via: Collectorz.com_Music_Collector 6.9
#
DISCID=1d10b714
DTITLE=Various Artist - 083B
DYEAR=1995
DGENRE=Pop
TTITLE0=N/A
TTITLE1=Eric Clapton - Five Long Years
TTITLE2=Tesla - A Lot To Lose
TTITLE3=Dream Theater - The Silent Man
TTITLE4=Sheryl Crow - Strong Enough
TTITLE5=Green Jelly - Jump
TTITLE6=Slayer - Serenity
TTITLE7=Love Battery - Fuzz Factory
TTITLE8=Belly - Now They'll Sleep
TTITLE9=Liz Phair - Whip-Smart
TTITLE10=The The - I Saw The Light
TTITLE11=N/A
TTITLE12=Spice 1 - Face Of A Desperate Man
TTITLE13=Stevie Wonder - For Your Love
TTITLE14=Zhané - You're Sorry Now
TTITLE15=Shaquille O'Neal Featuring Prince Raheem, The RZA and Method Man - No Hook
TTITLE16=Cindy Mizelle - Because Of You
TTITLE17=Da Youngsta's - Mad Props
TTITLE18=Casserine - We Gotta Run
TTITLE19=Kut Klose - I Like
EXTD=
EXTT0=
EXTT1=
EXTT2=
EXTT3=
EXTT4=
EXTT5=
EXTT6=
EXTT7=
EXTT8=
EXTT9=
EXTT10=
EXTT11=
EXTT12=
EXTT13=
EXTT14=
EXTT15=
EXTT16=
EXTT17=
EXTT18=
EXTT19=
PLAYORDER=
